<mxfile host="app.diagrams.net" modified="2022-09-08T08:46:49.267Z" agent="5.0 (Macintosh; Intel Mac OS X 10_15_7) AppleWebKit/605.1.15 (KHTML, like Gecko) Version/15.6.1 Safari/605.1.15" etag="AgCd6LG1cl7G2BbO3Cam" version="20.3.0" type="github">
  <diagram id="C5RBs43oDa-KdzZeNtuy" name="Page-1">
    <mxGraphModel dx="2002" dy="2244" grid="1" gridSize="10" guides="1" tooltips="1" connect="1" arrows="1" fold="1" page="1" pageScale="1" pageWidth="827" pageHeight="1169" math="0" shadow="0">
      <root>
        <mxCell id="WIyWlLk6GJQsqaUBKTNV-0" />
        <mxCell id="WIyWlLk6GJQsqaUBKTNV-1" parent="WIyWlLk6GJQsqaUBKTNV-0" />
        <mxCell id="q94M4PIvacAtaxIkhWEw-3" value="" style="edgeStyle=orthogonalEdgeStyle;rounded=0;orthogonalLoop=1;jettySize=auto;html=1;" edge="1" parent="WIyWlLk6GJQsqaUBKTNV-1" source="q94M4PIvacAtaxIkhWEw-0" target="q94M4PIvacAtaxIkhWEw-2">
          <mxGeometry relative="1" as="geometry" />
        </mxCell>
        <mxCell id="q94M4PIvacAtaxIkhWEw-0" value="开始" style="strokeWidth=2;html=1;shape=mxgraph.flowchart.terminator;whiteSpace=wrap;" vertex="1" parent="WIyWlLk6GJQsqaUBKTNV-1">
          <mxGeometry x="170" width="100" height="60" as="geometry" />
        </mxCell>
        <mxCell id="q94M4PIvacAtaxIkhWEw-5" value="" style="edgeStyle=orthogonalEdgeStyle;rounded=0;orthogonalLoop=1;jettySize=auto;html=1;" edge="1" parent="WIyWlLk6GJQsqaUBKTNV-1" source="q94M4PIvacAtaxIkhWEw-2" target="q94M4PIvacAtaxIkhWEw-4">
          <mxGeometry relative="1" as="geometry" />
        </mxCell>
        <mxCell id="q94M4PIvacAtaxIkhWEw-2" value="int count=0&lt;br&gt;int sum=0" style="whiteSpace=wrap;html=1;strokeWidth=2;" vertex="1" parent="WIyWlLk6GJQsqaUBKTNV-1">
          <mxGeometry x="160" y="140" width="120" height="60" as="geometry" />
        </mxCell>
        <mxCell id="q94M4PIvacAtaxIkhWEw-7" value="" style="edgeStyle=orthogonalEdgeStyle;rounded=0;orthogonalLoop=1;jettySize=auto;html=1;" edge="1" parent="WIyWlLk6GJQsqaUBKTNV-1" source="q94M4PIvacAtaxIkhWEw-4" target="q94M4PIvacAtaxIkhWEw-6">
          <mxGeometry relative="1" as="geometry" />
        </mxCell>
        <mxCell id="q94M4PIvacAtaxIkhWEw-4" value="输入n" style="shape=parallelogram;perimeter=parallelogramPerimeter;whiteSpace=wrap;html=1;fixedSize=1;strokeWidth=2;" vertex="1" parent="WIyWlLk6GJQsqaUBKTNV-1">
          <mxGeometry x="160" y="280" width="120" height="60" as="geometry" />
        </mxCell>
        <mxCell id="q94M4PIvacAtaxIkhWEw-9" value="" style="edgeStyle=orthogonalEdgeStyle;rounded=0;orthogonalLoop=1;jettySize=auto;html=1;" edge="1" parent="WIyWlLk6GJQsqaUBKTNV-1" source="q94M4PIvacAtaxIkhWEw-6" target="q94M4PIvacAtaxIkhWEw-8">
          <mxGeometry relative="1" as="geometry" />
        </mxCell>
        <mxCell id="q94M4PIvacAtaxIkhWEw-6" value="int i = 1" style="whiteSpace=wrap;html=1;strokeWidth=2;" vertex="1" parent="WIyWlLk6GJQsqaUBKTNV-1">
          <mxGeometry x="160" y="420" width="120" height="60" as="geometry" />
        </mxCell>
        <mxCell id="q94M4PIvacAtaxIkhWEw-11" value="" style="edgeStyle=orthogonalEdgeStyle;rounded=0;orthogonalLoop=1;jettySize=auto;html=1;" edge="1" parent="WIyWlLk6GJQsqaUBKTNV-1" source="q94M4PIvacAtaxIkhWEw-8" target="q94M4PIvacAtaxIkhWEw-10">
          <mxGeometry relative="1" as="geometry" />
        </mxCell>
        <mxCell id="q94M4PIvacAtaxIkhWEw-20" style="edgeStyle=orthogonalEdgeStyle;rounded=0;orthogonalLoop=1;jettySize=auto;html=1;exitX=1;exitY=0.5;exitDx=0;exitDy=0;entryX=0;entryY=0.5;entryDx=0;entryDy=0;entryPerimeter=0;" edge="1" parent="WIyWlLk6GJQsqaUBKTNV-1" source="q94M4PIvacAtaxIkhWEw-8" target="q94M4PIvacAtaxIkhWEw-19">
          <mxGeometry relative="1" as="geometry" />
        </mxCell>
        <mxCell id="q94M4PIvacAtaxIkhWEw-8" value="i&amp;lt;n" style="rhombus;whiteSpace=wrap;html=1;strokeWidth=2;" vertex="1" parent="WIyWlLk6GJQsqaUBKTNV-1">
          <mxGeometry x="180" y="550" width="80" height="80" as="geometry" />
        </mxCell>
        <mxCell id="q94M4PIvacAtaxIkhWEw-13" value="" style="edgeStyle=orthogonalEdgeStyle;rounded=0;orthogonalLoop=1;jettySize=auto;html=1;" edge="1" parent="WIyWlLk6GJQsqaUBKTNV-1" source="q94M4PIvacAtaxIkhWEw-10" target="q94M4PIvacAtaxIkhWEw-12">
          <mxGeometry relative="1" as="geometry" />
        </mxCell>
        <mxCell id="q94M4PIvacAtaxIkhWEw-21" style="edgeStyle=orthogonalEdgeStyle;rounded=0;orthogonalLoop=1;jettySize=auto;html=1;exitX=1;exitY=0.5;exitDx=0;exitDy=0;" edge="1" parent="WIyWlLk6GJQsqaUBKTNV-1" source="q94M4PIvacAtaxIkhWEw-10">
          <mxGeometry relative="1" as="geometry">
            <mxPoint x="360" y="590" as="targetPoint" />
          </mxGeometry>
        </mxCell>
        <mxCell id="q94M4PIvacAtaxIkhWEw-10" value="i%7==0" style="rhombus;whiteSpace=wrap;html=1;strokeWidth=2;" vertex="1" parent="WIyWlLk6GJQsqaUBKTNV-1">
          <mxGeometry x="180" y="710" width="80" height="80" as="geometry" />
        </mxCell>
        <mxCell id="q94M4PIvacAtaxIkhWEw-15" value="" style="edgeStyle=orthogonalEdgeStyle;rounded=0;orthogonalLoop=1;jettySize=auto;html=1;" edge="1" parent="WIyWlLk6GJQsqaUBKTNV-1" source="q94M4PIvacAtaxIkhWEw-12" target="q94M4PIvacAtaxIkhWEw-14">
          <mxGeometry relative="1" as="geometry" />
        </mxCell>
        <mxCell id="q94M4PIvacAtaxIkhWEw-12" value="输出i+&quot; &quot;&amp;nbsp;" style="shape=parallelogram;perimeter=parallelogramPerimeter;whiteSpace=wrap;html=1;fixedSize=1;strokeWidth=2;" vertex="1" parent="WIyWlLk6GJQsqaUBKTNV-1">
          <mxGeometry x="160" y="880" width="120" height="60" as="geometry" />
        </mxCell>
        <mxCell id="q94M4PIvacAtaxIkhWEw-17" value="" style="edgeStyle=orthogonalEdgeStyle;rounded=0;orthogonalLoop=1;jettySize=auto;html=1;" edge="1" parent="WIyWlLk6GJQsqaUBKTNV-1" source="q94M4PIvacAtaxIkhWEw-14" target="q94M4PIvacAtaxIkhWEw-16">
          <mxGeometry relative="1" as="geometry" />
        </mxCell>
        <mxCell id="q94M4PIvacAtaxIkhWEw-14" value="count++;&lt;br&gt;sum+=I;" style="whiteSpace=wrap;html=1;strokeWidth=2;" vertex="1" parent="WIyWlLk6GJQsqaUBKTNV-1">
          <mxGeometry x="160" y="1020" width="120" height="60" as="geometry" />
        </mxCell>
        <mxCell id="q94M4PIvacAtaxIkhWEw-18" style="edgeStyle=orthogonalEdgeStyle;rounded=0;orthogonalLoop=1;jettySize=auto;html=1;exitX=0.5;exitY=0;exitDx=0;exitDy=0;entryX=0;entryY=0.5;entryDx=0;entryDy=0;" edge="1" parent="WIyWlLk6GJQsqaUBKTNV-1" source="q94M4PIvacAtaxIkhWEw-16" target="q94M4PIvacAtaxIkhWEw-8">
          <mxGeometry relative="1" as="geometry" />
        </mxCell>
        <mxCell id="q94M4PIvacAtaxIkhWEw-16" value="i++" style="whiteSpace=wrap;html=1;strokeWidth=2;" vertex="1" parent="WIyWlLk6GJQsqaUBKTNV-1">
          <mxGeometry x="-40" y="1020" width="120" height="60" as="geometry" />
        </mxCell>
        <mxCell id="q94M4PIvacAtaxIkhWEw-19" value="结束" style="strokeWidth=2;html=1;shape=mxgraph.flowchart.terminator;whiteSpace=wrap;" vertex="1" parent="WIyWlLk6GJQsqaUBKTNV-1">
          <mxGeometry x="414" y="560" width="100" height="60" as="geometry" />
        </mxCell>
      </root>
    </mxGraphModel>
  </diagram>
</mxfile>
